<?xml version="1.0" encoding="UTF-8" standalone="no"?>
<!-- Created with Inkscape (http://www.inkscape.org/) -->

<svg
   version="1.1"
   id="svg2"
   width="938.66669"
   height="500"
   viewBox="0 0 938.66669 500"
   sodipodi:docname="MARCA - LEVEZA PARA VIVER.ai"
   xmlns:inkscape="http://www.inkscape.org/namespaces/inkscape"
   xmlns:sodipodi="http://sodipodi.sourceforge.net/DTD/sodipodi-0.dtd"
   xmlns="http://www.w3.org/2000/svg"
   xmlns:svg="http://www.w3.org/2000/svg">
  <defs
     id="defs6">
    <clipPath
       clipPathUnits="userSpaceOnUse"
       id="clipPath18">
      <path
         d="M 0,375 H 704 V 0 H 0 Z"
         id="path16" />
    </clipPath>
    <clipPath
       clipPathUnits="userSpaceOnUse"
       id="clipPath178">
      <path
         d="M 277.118,340.151 H 445.239 V 172.893 H 277.118 Z"
         id="path176" />
    </clipPath>
    <clipPath
       clipPathUnits="userSpaceOnUse"
       id="clipPath210">
      <path
         d="M 307.192,296.204 H 444.82 V 172.896 H 307.192 Z"
         id="path208" />
    </clipPath>
  </defs>
  <sodipodi:namedview
     id="namedview4"
     pagecolor="#ffffff"
     bordercolor="#000000"
     borderopacity="0.25"
     inkscape:showpageshadow="2"
     inkscape:pageopacity="0.0"
     inkscape:pagecheckerboard="0"
     inkscape:deskcolor="#d1d1d1"
     showgrid="false" />
  <g
     id="g10"
     inkscape:groupmode="layer"
     inkscape:label="Page 1"
     transform="matrix(1.3333333,0,0,-1.3333333,0,500)">
    <g
       id="g12">
      <g
         id="g14"
         clip-path="url(#clipPath18)">
        <g
           id="g20"
           transform="translate(142.3735,131.9451)">
          <path
             d="m 0,0 v 16.414 c 0,0.583 0.477,1.06 1.032,1.06 h 11.517 c 0.529,0 0.953,-0.424 0.953,-0.953 0,-0.531 -0.424,-0.954 -0.953,-0.954 H 2.091 V 9.24 h 9.266 c 0.53,0 0.954,-0.45 0.954,-0.953 0,-0.53 -0.424,-0.953 -0.954,-0.953 H 2.091 V 0.848 h 10.59 c 0.529,0 0.953,-0.424 0.953,-0.953 0,-0.53 -0.424,-0.954 -0.953,-0.954 H 1.032 C 0.477,-1.059 0,-0.582 0,0"
             style="fill:#075489;fill-opacity:1;fill-rule:nonzero;stroke:none"
             id="path22" />
        </g>
        <g
           id="g24"
           transform="translate(164.7505,133.1101)">
          <path
             d="m 0,0 c -0.238,0.159 -0.397,0.45 -0.397,0.794 0,0.583 0.45,1.033 1.006,1.033 0.265,0 0.503,-0.106 0.635,-0.238 1.747,-1.483 3.495,-2.197 5.851,-2.197 2.489,0 4.13,1.323 4.13,3.15 v 0.053 c 0,1.72 -0.926,2.7 -4.818,3.52 -4.262,0.927 -6.221,2.304 -6.221,5.349 v 0.053 c 0,2.912 2.567,5.056 6.088,5.056 2.436,0 4.209,-0.609 5.904,-1.827 0.212,-0.159 0.45,-0.45 0.45,-0.847 0,-0.556 -0.45,-1.006 -1.006,-1.006 -0.238,0 -0.424,0.053 -0.608,0.185 -1.563,1.139 -3.072,1.615 -4.792,1.615 -2.409,0 -3.946,-1.324 -3.946,-2.991 v -0.054 c 0,-1.747 0.953,-2.726 5.031,-3.6 4.13,-0.9 6.036,-2.409 6.036,-5.241 V 2.754 c 0,-3.178 -2.648,-5.242 -6.327,-5.242 C 4.315,-2.488 2.065,-1.642 0,0"
             style="fill:#075489;fill-opacity:1;fill-rule:nonzero;stroke:none"
             id="path26" />
        </g>
        <g
           id="g28"
           transform="translate(194.3276,139.3318)">
          <path
             d="M 0,0 C 3.071,0 5.083,1.642 5.083,4.077 V 4.13 c 0,2.647 -1.985,4.024 -4.977,4.024 H -4.58 V 0 Z m -6.671,9.027 c 0,0.583 0.477,1.06 1.032,1.06 h 5.904 c 4.183,0 6.936,-2.225 6.936,-5.878 V 4.156 c 0,-3.997 -3.336,-6.062 -7.28,-6.062 H -4.58 v -5.613 c 0,-0.583 -0.477,-1.059 -1.059,-1.059 -0.555,0 -1.032,0.476 -1.032,1.059 z"
             style="fill:#075489;fill-opacity:1;fill-rule:nonzero;stroke:none"
             id="path30" />
        </g>
        <g
           id="g32"
           transform="translate(220.8882,137.6902)">
          <path
             d="M 0,0 -4.262,9.478 -8.524,0 Z m -13.104,-5.427 7.518,16.441 c 0.265,0.582 0.662,0.925 1.324,0.925 h 0.106 c 0.635,0 1.058,-0.343 1.297,-0.925 L 4.66,-5.4 c 0.079,-0.186 0.132,-0.371 0.132,-0.53 0,-0.556 -0.45,-1.007 -1.006,-1.007 -0.503,0 -0.848,0.345 -1.032,0.769 L 0.821,-1.906 H -9.345 l -1.932,-4.316 c -0.186,-0.449 -0.531,-0.715 -1.006,-0.715 -0.53,0 -0.953,0.424 -0.953,0.954 0,0.159 0.026,0.344 0.132,0.556"
             style="fill:#075489;fill-opacity:1;fill-rule:nonzero;stroke:none"
             id="path34" />
        </g>
        <g
           id="g36"
           transform="translate(242.9224,130.5691)">
          <path
             d="m 0,0 -1.403,-3.019 c -0.186,-0.37 -0.371,-0.608 -0.822,-0.608 -0.503,0 -1.27,0.45 -1.27,0.847 0,0.133 0.053,0.291 0.159,0.476 l 1.642,2.383 C -6.381,0.688 -9.717,4.633 -9.717,9.53 v 0.053 c 0,5.242 3.919,9.584 9.372,9.584 2.992,0 4.898,-0.98 6.619,-2.409 0.211,-0.186 0.423,-0.477 0.423,-0.848 0,-0.556 -0.503,-1.032 -1.058,-1.032 -0.291,0 -0.53,0.133 -0.689,0.238 -1.429,1.271 -3.045,2.118 -5.321,2.118 -4.104,0 -7.175,-3.336 -7.175,-7.598 V 9.583 c 0,-4.288 3.098,-7.65 7.175,-7.65 2.304,0 3.918,0.794 5.507,2.25 0.158,0.159 0.396,0.291 0.662,0.291 0.529,0 1.006,-0.477 1.006,-1.006 C 6.804,3.15 6.645,2.886 6.459,2.727 4.712,1.138 2.806,0.105 0,0"
             style="fill:#075489;fill-opacity:1;fill-rule:nonzero;stroke:none"
             id="path38" />
        </g>
        <g
           id="g40"
           transform="translate(274.2476,140.0994)">
          <path
             d="m 0,0 v 0.053 c 0,4.21 -3.071,7.651 -7.308,7.651 -4.235,0 -7.254,-3.389 -7.254,-7.599 V 0.053 c 0,-4.209 3.072,-7.651 7.308,-7.651 C -3.019,-7.598 0,-4.209 0,0 m -16.732,0 v 0.053 c 0,5.109 3.838,9.584 9.478,9.584 5.639,0 9.425,-4.421 9.425,-9.532 V 0.053 c 0,-5.11 -3.839,-9.583 -9.479,-9.583 -5.638,0 -9.424,4.421 -9.424,9.53"
             style="fill:#075489;fill-opacity:1;fill-rule:nonzero;stroke:none"
             id="path42" />
        </g>
        <g
           id="g44"
           transform="translate(305.8149,132.8191)">
          <path
             d="m 0,0 c 4.687,0 7.678,3.177 7.678,7.28 v 0.053 c 0,4.104 -2.991,7.334 -7.678,7.334 H -4.342 V 0 Z m -6.433,15.54 c 0,0.583 0.477,1.06 1.033,1.06 H 0 c 5.824,0 9.849,-3.998 9.849,-9.214 V 7.333 C 9.849,2.118 5.824,-1.933 0,-1.933 h -5.4 c -0.556,0 -1.033,0.477 -1.033,1.059 z"
             style="fill:#075489;fill-opacity:1;fill-rule:nonzero;stroke:none"
             id="path46" />
        </g>
        <g
           id="g48"
           transform="translate(325.3872,131.9451)">
          <path
             d="m 0,0 v 16.414 c 0,0.583 0.477,1.06 1.032,1.06 h 11.517 c 0.529,0 0.953,-0.424 0.953,-0.953 0,-0.531 -0.424,-0.954 -0.953,-0.954 H 2.091 V 9.24 h 9.266 c 0.53,0 0.954,-0.45 0.954,-0.953 0,-0.53 -0.424,-0.953 -0.954,-0.953 H 2.091 V 0.848 h 10.59 c 0.529,0 0.953,-0.424 0.953,-0.953 0,-0.53 -0.424,-0.954 -0.953,-0.954 H 1.032 C 0.477,-1.059 0,-0.582 0,0"
             style="fill:#075489;fill-opacity:1;fill-rule:nonzero;stroke:none"
             id="path50" />
        </g>
        <g
           id="g52"
           transform="translate(361.6665,131.9451)">
          <path
             d="m 0,0 v 16.414 c 0,0.583 0.477,1.06 1.032,1.06 h 11.517 c 0.529,0 0.953,-0.424 0.953,-0.953 0,-0.531 -0.424,-0.954 -0.953,-0.954 H 2.091 V 9.24 h 9.266 c 0.53,0 0.954,-0.45 0.954,-0.953 0,-0.53 -0.424,-0.953 -0.954,-0.953 H 2.091 V 0.848 h 10.59 c 0.529,0 0.953,-0.424 0.953,-0.953 0,-0.53 -0.424,-0.954 -0.953,-0.954 H 1.032 C 0.477,-1.059 0,-0.582 0,0"
             style="fill:#075489;fill-opacity:1;fill-rule:nonzero;stroke:none"
             id="path54" />
        </g>
        <g
           id="g56"
           transform="translate(390.6616,131.5486)">
          <path
             d="m 0,0 -7.147,16.493 c -0.08,0.159 -0.107,0.291 -0.107,0.477 0,0.529 0.477,1.032 1.06,1.032 0.529,0 0.9,-0.344 1.085,-0.794 L 1.298,1.853 7.73,17.261 c 0.186,0.371 0.557,0.741 1.034,0.741 0.582,0 1.032,-0.477 1.032,-1.006 0,-0.159 -0.026,-0.291 -0.079,-0.424 L 2.542,0 C 2.304,-0.529 1.933,-0.874 1.324,-0.874 H 1.218 C 0.609,-0.874 0.212,-0.529 0,0"
             style="fill:#075489;fill-opacity:1;fill-rule:nonzero;stroke:none"
             id="path58" />
        </g>
        <g
           id="g60"
           transform="translate(424.6626,140.0994)">
          <path
             d="m 0,0 v 0.053 c 0,4.21 -3.071,7.651 -7.308,7.651 -4.235,0 -7.254,-3.389 -7.254,-7.599 V 0.053 c 0,-4.209 3.072,-7.651 7.308,-7.651 C -3.019,-7.598 0,-4.209 0,0 m -16.732,0 v 0.053 c 0,5.109 3.838,9.584 9.478,9.584 5.639,0 9.425,-4.421 9.425,-9.532 V 0.053 c 0,-5.11 -3.839,-9.583 -9.479,-9.583 -5.638,0 -9.424,4.421 -9.424,9.53"
             style="fill:#075489;fill-opacity:1;fill-rule:nonzero;stroke:none"
             id="path62" />
        </g>
        <g
           id="g64"
           transform="translate(436.5562,148.4919)">
          <path
             d="M 0,0 C 0,0.582 0.477,1.059 1.032,1.059 1.615,1.059 2.091,0.582 2.091,0 v -15.673 h 9.61 c 0.529,0 0.953,-0.45 0.953,-0.979 0,-0.53 -0.424,-0.953 -0.953,-0.953 H 1.032 C 0.477,-17.605 0,-17.129 0,-16.547 Z"
             style="fill:#075489;fill-opacity:1;fill-rule:nonzero;stroke:none"
             id="path66" />
        </g>
        <g
           id="g68"
           transform="translate(457.4243,138.6433)">
          <path
             d="m 0,0 v 9.849 c 0,0.582 0.477,1.058 1.032,1.058 0.582,0 1.059,-0.476 1.059,-1.058 V 0.133 c 0,-3.998 2.144,-6.248 5.666,-6.248 3.415,0 5.586,2.064 5.586,6.115 v 9.849 c 0,0.582 0.476,1.058 1.058,1.058 0.556,0 1.033,-0.476 1.033,-1.058 v -9.69 c 0,-5.401 -3.097,-8.207 -7.731,-8.207 C 3.124,-8.048 0,-5.242 0,0"
             style="fill:#075489;fill-opacity:1;fill-rule:nonzero;stroke:none"
             id="path70" />
        </g>
        <g
           id="g72"
           transform="translate(492.0063,130.5691)">
          <path
             d="m 0,0 -1.403,-3.019 c -0.186,-0.37 -0.371,-0.608 -0.822,-0.608 -0.503,0 -1.27,0.45 -1.27,0.847 0,0.133 0.053,0.291 0.159,0.476 l 1.642,2.383 C -6.381,0.688 -9.717,4.633 -9.717,9.53 v 0.053 c 0,5.242 3.919,9.584 9.372,9.584 2.992,0 4.898,-0.98 6.619,-2.409 0.211,-0.186 0.423,-0.477 0.423,-0.848 0,-0.556 -0.503,-1.032 -1.058,-1.032 -0.291,0 -0.53,0.133 -0.689,0.238 -1.429,1.271 -3.045,2.118 -5.321,2.118 -4.104,0 -7.175,-3.336 -7.175,-7.598 V 9.583 c 0,-4.288 3.098,-7.65 7.175,-7.65 2.304,0 3.918,0.794 5.507,2.25 0.158,0.159 0.396,0.291 0.662,0.291 0.529,0 1.006,-0.477 1.006,-1.006 C 6.804,3.15 6.645,2.886 6.459,2.727 4.712,1.138 2.806,0.105 0,0"
             style="fill:#075489;fill-opacity:1;fill-rule:nonzero;stroke:none"
             id="path74" />
        </g>
        <g
           id="g76"
           transform="translate(512.2388,151.0066)">
          <path
             d="m 0,0 c -0.371,0 -0.688,0.291 -0.688,0.636 0,0.105 0.052,0.317 0.079,0.424 0.529,1.535 1.191,2.143 2.33,2.143 1.191,0 2.647,-1.058 3.547,-1.058 0.609,0 0.9,0.264 1.217,0.926 0.107,0.212 0.319,0.45 0.61,0.45 0.37,0 0.688,-0.292 0.688,-0.635 C 7.783,2.78 7.729,2.595 7.703,2.462 7.174,0.927 6.512,0.317 5.374,0.317 4.183,0.317 2.727,1.377 1.826,1.377 1.218,1.377 0.926,1.112 0.608,0.45 0.503,0.238 0.317,0 0,0 m 7.677,-13.316 -4.262,9.477 -4.263,-9.477 z m -13.105,-5.427 7.519,16.44 c 0.264,0.582 0.662,0.926 1.324,0.926 h 0.106 c 0.635,0 1.058,-0.344 1.296,-0.926 l 7.52,-16.414 c 0.079,-0.185 0.132,-0.371 0.132,-0.529 0,-0.557 -0.45,-1.007 -1.006,-1.007 -0.503,0 -0.848,0.345 -1.032,0.769 l -1.933,4.261 H -1.668 l -1.933,-4.315 c -0.185,-0.449 -0.53,-0.715 -1.005,-0.715 -0.531,0 -0.954,0.424 -0.954,0.953 0,0.159 0.027,0.345 0.132,0.557"
             style="fill:#075489;fill-opacity:1;fill-rule:nonzero;stroke:none"
             id="path78" />
        </g>
        <g
           id="g80"
           transform="translate(548.9663,140.0994)">
          <path
             d="m 0,0 v 0.053 c 0,4.21 -3.071,7.651 -7.308,7.651 -4.235,0 -7.254,-3.389 -7.254,-7.599 V 0.053 c 0,-4.209 3.072,-7.651 7.308,-7.651 C -3.019,-7.598 0,-4.209 0,0 m -16.732,0 v 0.053 c 0,5.109 3.838,9.584 9.478,9.584 5.639,0 9.425,-4.421 9.425,-9.532 V 0.053 c 0,-5.11 -3.839,-9.583 -9.479,-9.583 -5.638,0 -9.424,4.421 -9.424,9.53"
             style="fill:#075489;fill-opacity:1;fill-rule:nonzero;stroke:none"
             id="path82" />
        </g>
        <g
           id="g84"
           transform="translate(75.9009,145.7742)">
          <path
             d="m 0,0 c -0.066,0 -0.315,-0.166 -0.745,-0.497 -0.431,-0.332 -0.894,-0.729 -1.39,-1.191 -0.497,-0.464 -0.977,-0.894 -1.44,-1.291 -0.464,-0.398 -0.762,-0.663 -0.894,-0.794 -0.861,-0.862 -1.655,-1.291 -2.384,-1.291 -0.53,0 -1.059,0.198 -1.588,0.595 -0.794,0.661 -1.176,1.39 -1.142,2.185 0.032,0.794 0.38,1.455 1.043,1.986 0.462,0.398 1.125,0.959 1.985,1.688 0.861,0.728 1.788,1.44 2.782,2.135 0.993,0.696 1.952,1.291 2.879,1.787 C 0.032,5.81 0.794,6.058 1.391,6.058 2.316,6.058 3.078,5.76 3.674,5.164 4.271,4.568 4.717,3.823 5.015,2.93 5.312,2.035 5.527,1.125 5.66,0.198 5.792,-0.729 5.892,-1.557 5.958,-2.284 6.09,-5.794 5.81,-9.203 5.114,-12.513 c -0.695,-3.311 -1.507,-6.653 -2.432,-10.03 -2.319,-8.408 -4.668,-16.75 -7.051,-25.024 -2.384,-8.278 -4.735,-16.619 -7.051,-25.026 -0.134,-0.464 -0.249,-0.928 -0.348,-1.39 -0.099,-0.464 -0.215,-0.994 -0.347,-1.589 1.191,0.199 2.3,0.381 3.326,0.547 1.026,0.164 2.036,0.312 3.029,0.446 l 30.388,4.469 c 0.397,0.065 0.794,0.115 1.191,0.149 0.398,0.032 0.795,0.05 1.192,0.05 0.795,0 1.472,-0.184 2.036,-0.547 0.561,-0.364 0.909,-0.978 1.043,-1.837 0.132,-0.861 -0.018,-1.539 -0.447,-2.036 -0.431,-0.496 -1.01,-0.878 -1.738,-1.142 -0.464,-0.133 -0.911,-0.232 -1.341,-0.298 -0.431,-0.066 -0.877,-0.133 -1.34,-0.199 l -38.134,-5.66 c -0.332,-0.065 -0.612,-0.099 -0.844,-0.099 h -0.844 c -3.709,0 -4.998,2.118 -3.873,6.356 2.515,9.136 5.065,18.205 7.647,27.209 2.582,9.003 5.13,18.074 7.646,27.21 0.728,2.846 1.341,5.711 1.837,8.59 0.497,2.88 1.009,5.775 1.539,8.689 0.132,0.529 0.165,1.075 0.1,1.639 -0.067,0.561 -0.1,1.108 -0.1,1.639 C 0.198,-0.134 0.132,0 0,0"
             style="fill:#075489;fill-opacity:1;fill-rule:nonzero;stroke:none"
             id="path86" />
        </g>
        <g
           id="g88"
           transform="translate(117.7563,84.5515)">
          <path
             d="m 0,0 c 0.165,-0.166 0.348,-0.248 0.547,-0.248 0.529,0 1.125,0.231 1.787,0.695 0.661,0.462 1.274,1.009 1.837,1.639 0.562,0.628 1.043,1.307 1.44,2.035 C 6.009,4.85 6.239,5.478 6.307,6.009 6.372,6.272 6.322,6.471 6.157,6.604 5.991,6.736 5.843,6.803 5.711,6.803 5.313,6.803 4.816,6.537 4.221,6.009 3.625,5.478 3.029,4.866 2.434,4.171 1.838,3.476 1.307,2.781 0.845,2.086 0.381,1.391 0.083,0.877 -0.049,0.547 -0.183,0.348 -0.166,0.165 0,0 m 29.842,-1.687 c -0.266,-1.028 -0.928,-1.805 -1.987,-2.334 -3.708,-1.921 -7.397,-3.824 -11.072,-5.71 -3.675,-1.887 -7.398,-3.759 -11.172,-5.612 -0.663,-0.332 -1.44,-0.694 -2.334,-1.092 -0.893,-0.397 -1.821,-0.761 -2.78,-1.092 -0.961,-0.332 -1.921,-0.613 -2.88,-0.844 -0.961,-0.233 -1.804,-0.348 -2.532,-0.348 -2.252,0 -4.023,0.794 -5.314,2.383 -1.29,1.589 -1.67,3.641 -1.141,6.157 0.927,4.435 2.532,8.457 4.816,12.066 2.284,3.608 5.115,6.902 8.491,9.882 1.192,1.124 2.615,1.687 4.27,1.687 1.391,0 2.614,-0.397 3.675,-1.191 C 11.007,11.47 11.769,10.41 12.165,9.087 12.563,7.762 12.496,6.339 11.967,4.816 11.173,2.565 10.014,0.646 8.491,-0.943 6.968,-2.532 5.18,-3.89 3.129,-5.015 2.466,-5.412 1.738,-5.61 0.944,-5.61 c -1.457,0 -2.781,0.794 -3.972,2.382 -0.531,-1.389 -1.01,-2.68 -1.441,-3.872 -0.43,-1.192 -0.811,-2.351 -1.141,-3.476 -0.332,-1.258 0.032,-1.887 1.092,-1.887 0.331,0 0.794,0.1 1.39,0.298 0.596,0.199 1.207,0.413 1.838,0.645 0.628,0.232 1.224,0.48 1.787,0.746 0.562,0.263 0.976,0.462 1.241,0.595 3.839,1.92 7.662,3.839 11.47,5.76 3.807,1.92 7.63,3.839 11.47,5.76 1.058,0.529 1.92,0.795 2.582,0.795 0.993,0 1.72,-0.398 2.184,-1.193 0.53,-0.728 0.661,-1.605 0.398,-2.63"
             style="fill:#075489;fill-opacity:1;fill-rule:nonzero;stroke:none"
             id="path90" />
        </g>
        <g
           id="g92"
           transform="translate(179.3247,101.8308)">
          <path
             d="m 0,0 c 0.231,-0.828 -0.018,-1.771 -0.745,-2.83 -2.649,-3.972 -5.313,-7.895 -7.994,-11.768 -2.682,-3.873 -5.412,-7.762 -8.193,-11.669 -0.663,-0.86 -1.457,-1.837 -2.383,-2.928 -0.928,-1.093 -1.921,-2.12 -2.979,-3.079 -1.06,-0.96 -2.185,-1.755 -3.377,-2.383 -1.191,-0.63 -2.383,-0.944 -3.575,-0.944 -1.589,0 -3.013,0.529 -4.27,1.589 -1.258,1.058 -2.185,2.647 -2.781,4.767 -0.464,1.589 -0.762,3.16 -0.893,4.717 -0.134,1.554 -0.266,2.83 -0.398,3.823 0.264,2.118 0.463,3.923 0.596,5.412 0.133,1.489 0.299,2.93 0.497,4.32 0.132,0.794 0.363,1.539 0.695,2.235 0.33,0.694 0.959,1.107 1.887,1.241 0.462,0.064 0.959,-0.05 1.489,-0.348 0.529,-0.298 0.959,-0.645 1.291,-1.043 0.529,-0.662 0.845,-1.375 0.944,-2.134 0.099,-0.762 -0.149,-1.54 -0.745,-2.334 -0.397,-0.531 -0.596,-0.994 -0.596,-1.391 0,-1.985 -0.017,-3.972 -0.049,-5.958 -0.034,-1.986 0.082,-3.973 0.347,-5.958 0.199,-2.053 0.86,-3.079 1.986,-3.079 0.661,0 1.639,0.645 2.93,1.936 1.291,1.291 2.631,2.747 4.022,4.37 1.39,1.622 2.664,3.21 3.823,4.767 1.158,1.555 1.936,2.631 2.333,3.228 1.788,2.514 3.492,5.064 5.115,7.646 1.622,2.582 3.26,5.164 4.916,7.745 1.057,1.589 2.15,2.384 3.277,2.384 0.33,0 0.76,-0.134 1.291,-0.397 C -0.745,1.473 -0.233,0.827 0,0"
             style="fill:#075489;fill-opacity:1;fill-rule:nonzero;stroke:none"
             id="path94" />
        </g>
        <g
           id="g96"
           transform="translate(183.5933,84.5515)">
          <path
             d="m 0,0 c 0.165,-0.166 0.348,-0.248 0.547,-0.248 0.529,0 1.125,0.231 1.787,0.695 0.661,0.462 1.274,1.009 1.837,1.639 0.562,0.628 1.043,1.307 1.44,2.035 C 6.009,4.85 6.239,5.478 6.307,6.009 6.372,6.272 6.322,6.471 6.157,6.604 5.991,6.736 5.843,6.803 5.711,6.803 5.313,6.803 4.816,6.537 4.221,6.009 3.625,5.478 3.029,4.866 2.434,4.171 1.838,3.476 1.307,2.781 0.845,2.086 0.381,1.391 0.083,0.877 -0.049,0.547 -0.183,0.348 -0.166,0.165 0,0 m 29.842,-1.687 c -0.266,-1.028 -0.928,-1.805 -1.987,-2.334 -3.708,-1.921 -7.397,-3.824 -11.072,-5.71 -3.675,-1.887 -7.398,-3.759 -11.172,-5.612 -0.663,-0.332 -1.44,-0.694 -2.334,-1.092 -0.893,-0.397 -1.821,-0.761 -2.78,-1.092 -0.961,-0.332 -1.921,-0.613 -2.88,-0.844 -0.961,-0.233 -1.804,-0.348 -2.532,-0.348 -2.252,0 -4.023,0.794 -5.314,2.383 -1.29,1.589 -1.67,3.641 -1.141,6.157 0.927,4.435 2.532,8.457 4.816,12.066 2.284,3.608 5.115,6.902 8.491,9.882 1.192,1.124 2.615,1.687 4.27,1.687 1.391,0 2.614,-0.397 3.675,-1.191 C 11.007,11.47 11.769,10.41 12.165,9.087 12.563,7.762 12.496,6.339 11.967,4.816 11.173,2.565 10.014,0.646 8.491,-0.943 6.968,-2.532 5.18,-3.89 3.129,-5.015 2.466,-5.412 1.738,-5.61 0.944,-5.61 c -1.457,0 -2.781,0.794 -3.972,2.382 -0.531,-1.389 -1.01,-2.68 -1.441,-3.872 -0.43,-1.192 -0.811,-2.351 -1.141,-3.476 -0.332,-1.258 0.032,-1.887 1.092,-1.887 0.331,0 0.794,0.1 1.39,0.298 0.596,0.199 1.207,0.413 1.838,0.645 0.628,0.232 1.224,0.48 1.787,0.746 0.562,0.263 0.976,0.462 1.241,0.595 3.839,1.92 7.662,3.839 11.47,5.76 3.807,1.92 7.63,3.839 11.47,5.76 1.058,0.529 1.92,0.795 2.582,0.795 0.993,0 1.72,-0.398 2.184,-1.193 0.53,-0.728 0.661,-1.605 0.398,-2.63"
             style="fill:#075489;fill-opacity:1;fill-rule:nonzero;stroke:none"
             id="path98" />
        </g>
        <g
           id="g100"
           transform="translate(213.5327,50.5398)">
          <path
             d="M 0,0 C 5.098,5.164 8.903,11.188 11.42,18.073 8.573,16.352 6.123,14.729 4.071,13.207 -0.63,9.699 -3.84,6.72 -5.561,4.27 -5.893,3.808 -6.256,3.194 -6.653,2.433 c -0.398,-0.76 -0.78,-1.655 -1.142,-2.681 -0.363,-1.026 -0.348,-1.888 0.049,-2.582 0.397,-0.695 1.257,-1.009 2.582,-0.943 0.463,0.066 0.959,0.248 1.49,0.545 0.528,0.298 0.959,0.596 1.291,0.894 0.33,0.298 0.778,0.73 1.34,1.291 C -0.48,-0.479 -0.133,-0.132 0,0 m 25.721,29.891 c 0.925,0.331 1.687,0.165 2.284,-0.496 0.596,-0.664 0.809,-1.458 0.645,-2.384 -0.166,-0.928 -0.713,-1.556 -1.638,-1.887 -2.716,-0.928 -5.86,-2.185 -9.435,-3.773 C 16.187,15.591 13.786,9.98 10.378,4.519 6.967,-0.943 3.012,-4.898 -1.489,-7.349 c -1.855,-1.192 -3.907,-1.589 -6.157,-1.192 -2.25,0.397 -3.806,1.688 -4.667,3.873 -1.589,3.709 -0.298,8.078 3.873,13.108 5.03,6.289 12.313,11.751 21.846,16.386 0.927,4.303 0.033,6.951 -2.68,7.945 -0.795,0.595 -2.816,0.645 -6.058,0.149 -3.245,-0.497 -5.33,-0.713 -6.257,-0.646 -0.861,0.066 -1.573,0.512 -2.135,1.341 -0.563,0.826 -0.546,1.604 0.05,2.333 3.376,4.237 6.356,8.64 8.938,13.208 0.462,0.661 0.925,1.589 1.389,2.781 0.463,1.192 0.463,1.919 0,2.184 -0.198,0.132 -0.595,0.132 -1.191,0 C 4.866,53.988 4.203,53.757 3.476,53.427 L 2.384,52.93 c -2.185,-0.993 -4.271,-2.517 -6.257,-4.569 -0.662,-0.728 -1.439,-0.943 -2.333,-0.645 -0.895,0.299 -1.457,0.86 -1.689,1.688 -0.231,0.827 -0.049,1.639 0.546,2.434 0.994,0.992 2.285,2.051 3.873,3.178 1.589,1.125 3.343,2.15 5.264,3.078 1.919,0.927 3.789,1.306 5.61,1.141 1.821,-0.166 3.194,-1.042 4.122,-2.631 1.191,-1.986 0.661,-5.064 -1.589,-9.235 -1.656,-2.848 -3.808,-6.191 -6.455,-10.03 1.788,0.397 3.823,0.546 6.107,0.447 2.284,-0.099 4.187,-0.745 5.71,-1.936 2.317,-1.921 3.409,-4.834 3.277,-8.74 3.178,1.324 5.562,2.25 7.151,2.781"
             style="fill:#075489;fill-opacity:1;fill-rule:nonzero;stroke:none"
             id="path102" />
        </g>
        <g
           id="g104"
           transform="translate(258.7163,83.906)">
          <path
             d="M 0,0 C -0.134,0.661 -0.233,1.274 -0.298,1.838 -0.365,2.399 -0.464,2.945 -0.596,3.476 -0.729,4.137 -1.027,4.668 -1.49,5.065 -1.954,5.462 -2.482,5.661 -3.079,5.661 -3.543,5.661 -3.907,5.594 -4.171,5.462 -5.43,4.932 -6.737,4.055 -8.094,2.83 c -1.357,-1.226 -2.598,-2.599 -3.723,-4.121 -1.127,-1.523 -2.086,-3.112 -2.88,-4.767 -0.795,-1.655 -1.227,-3.212 -1.291,-4.667 0,-0.595 0.298,-0.893 0.893,-0.893 0.199,0 0.33,0.032 0.398,0.098 3.044,1.325 5.725,3.012 8.044,5.066 2.316,2.051 4.468,4.037 6.454,5.958 C -0.067,-0.364 0,-0.198 0,0 m 30.486,-3.228 c -0.132,-0.893 -0.662,-1.705 -1.589,-2.432 -1.721,-1.391 -3.708,-2.632 -5.958,-3.724 -2.252,-1.093 -4.535,-1.638 -6.852,-1.638 -2.119,0 -3.823,0.627 -5.114,1.886 -1.291,1.257 -2.035,3.044 -2.235,5.363 -0.066,0.529 -0.098,1.058 -0.098,1.588 0,0.53 -0.035,1.159 -0.1,1.887 -2.848,-2.516 -5.744,-4.999 -8.689,-7.447 -2.947,-2.45 -5.909,-4.834 -8.888,-7.151 -0.861,-0.663 -2.053,-1.291 -3.575,-1.886 -1.524,-0.596 -2.847,-0.894 -3.972,-0.894 -1.589,0 -2.895,0.546 -3.923,1.639 -1.025,1.092 -1.604,2.498 -1.738,4.22 0,0.529 0.034,1.043 0.099,1.54 0.067,0.496 0.167,0.975 0.298,1.439 0.663,2.118 1.623,4.385 2.88,6.803 1.257,2.416 2.764,4.682 4.519,6.802 1.753,2.118 3.739,3.873 5.958,5.263 2.218,1.391 4.584,2.085 7.1,2.085 1.787,0 3.278,-0.562 4.469,-1.687 C 4.27,9.301 5.064,7.68 5.462,5.562 6.058,6.091 6.604,6.57 7.101,7.001 7.597,7.432 8.108,7.812 8.64,8.144 c 0.925,0.595 1.787,0.893 2.582,0.893 0.859,0 1.621,-0.282 2.283,-0.844 0.661,-0.563 1.058,-1.407 1.192,-2.532 0.132,-1.127 0.164,-2.284 0.099,-3.475 -0.067,-1.193 -0.133,-2.384 -0.198,-3.576 -0.067,-2.45 0.463,-3.674 1.589,-3.674 0.595,0 1.306,0.149 2.134,0.447 0.827,0.298 1.672,0.678 2.533,1.141 0.86,0.463 1.688,0.927 2.483,1.391 0.794,0.462 1.423,0.827 1.887,1.092 1.057,0.661 1.986,0.993 2.78,0.993 0.795,0 1.423,-0.298 1.887,-0.894 0.529,-0.662 0.727,-1.439 0.595,-2.334"
             style="fill:#075489;fill-opacity:1;fill-rule:nonzero;stroke:none"
             id="path106" />
        </g>
        <g
           id="g108"
           transform="translate(334.3862,75.366)">
          <path
             d="m 0,0 c 0.064,0.132 0.064,0.231 0,0.298 -0.067,0.065 -0.166,0.065 -0.298,0 -1.39,-0.928 -2.632,-2.003 -3.724,-3.228 -1.092,-1.225 -1.904,-2.134 -2.433,-2.73 -0.266,-0.332 -0.298,-0.68 -0.1,-1.043 0.2,-0.364 0.463,-0.546 0.795,-0.546 0.33,0 0.778,0.33 1.34,0.993 0.563,0.661 1.158,1.423 1.788,2.283 0.628,0.861 1.207,1.689 1.737,2.484 0.53,0.794 0.861,1.323 0.994,1.589 z m 26.117,13.654 c 0,-0.828 -0.134,-1.407 -0.397,-1.737 C 24.926,10.658 23.799,9.765 22.344,9.235 20.755,8.573 19.148,7.978 17.527,7.448 15.904,6.917 14.266,6.389 12.611,5.859 10.89,5.396 9.665,4.335 8.938,2.682 7.944,0.363 6.719,-1.771 5.263,-3.724 3.806,-5.678 2.085,-7.415 0.099,-8.938 c -0.862,-0.662 -1.871,-1.34 -3.029,-2.036 -1.159,-0.694 -2.301,-1.042 -3.425,-1.042 -1.391,0 -2.55,0.464 -3.477,1.39 -0.928,0.86 -1.556,1.82 -1.887,2.88 -0.332,1.059 -0.232,2.151 0.298,3.277 0.529,1.125 1.108,2.218 1.738,3.278 0.628,1.057 1.406,1.952 2.334,2.68 1.721,1.391 3.526,2.682 5.412,3.873 1.887,1.193 3.79,2.384 5.71,3.576 0.462,0.331 0.877,0.76 1.242,1.291 0.363,0.529 0.645,1.108 0.843,1.738 0.2,0.628 0.314,1.257 0.348,1.887 0.033,0.627 -0.084,1.174 -0.348,1.638 -0.264,0.529 -0.58,0.876 -0.943,1.042 -0.364,0.165 -0.744,0.249 -1.142,0.249 -0.531,0 -1.027,-0.134 -1.489,-0.397 -2.12,-1.192 -3.972,-2.468 -5.561,-3.823 -1.589,-1.359 -3.03,-2.831 -4.321,-4.419 -1.291,-1.589 -2.482,-3.312 -3.574,-5.165 -1.093,-1.854 -2.202,-3.873 -3.327,-6.057 -2.517,-5.032 -5.015,-10.063 -7.498,-15.095 -2.482,-5.03 -4.981,-10.095 -7.497,-15.194 -0.529,-1.124 -0.977,-2.299 -1.341,-3.526 -0.363,-1.223 -0.81,-2.398 -1.341,-3.524 -0.33,-0.597 -0.809,-1.175 -1.439,-1.738 -0.629,-0.562 -1.307,-0.844 -2.036,-0.844 -0.86,0 -1.539,0.396 -2.036,1.191 -0.497,0.794 -0.579,1.755 -0.249,2.88 0.398,1.39 0.83,2.765 1.291,4.121 0.464,1.358 0.961,2.699 1.491,4.022 3.376,9.667 6.769,19.25 10.178,28.749 3.41,9.5 6.802,19.083 10.179,28.75 0.33,0.859 0.611,1.703 0.844,2.532 0.231,0.826 0.479,1.671 0.745,2.532 0.794,2.317 1.853,3.476 3.178,3.476 0.33,0 0.595,-0.034 0.795,-0.1 1.852,-0.53 2.348,-2.152 1.489,-4.866 -0.928,-2.978 -1.921,-5.908 -2.98,-8.788 -1.059,-2.88 -2.119,-5.81 -3.177,-8.789 l -2.085,-5.66 c 0,-0.198 0.098,-0.198 0.298,0 0.993,1.257 1.968,2.515 2.929,3.773 0.959,1.257 1.969,2.483 3.029,3.675 0.794,0.926 1.704,1.869 2.731,2.83 1.025,0.959 2.101,1.837 3.227,2.632 1.125,0.794 2.334,1.439 3.625,1.936 1.291,0.497 2.597,0.745 3.922,0.745 1.721,0 3.244,-0.414 4.569,-1.242 1.323,-0.828 2.283,-2.003 2.88,-3.525 0.198,-0.53 0.33,-1.077 0.396,-1.639 0.066,-0.562 0.165,-1.109 0.298,-1.638 0.065,-0.332 0.1,-0.695 0.1,-1.092 0,-0.398 0.032,-0.894 0.099,-1.49 1.589,0.596 3.111,1.174 4.568,1.738 1.456,0.561 2.879,1.108 4.27,1.639 0.331,0.131 0.646,0.33 0.943,0.595 0.298,0.264 0.612,0.398 0.944,0.398 0.529,-0.068 1.075,-0.166 1.639,-0.298 0.561,-0.134 0.975,-0.365 1.241,-0.695 0.263,-0.332 0.397,-0.912 0.397,-1.739"
             style="fill:#075489;fill-opacity:1;fill-rule:nonzero;stroke:none"
             id="path110" />
        </g>
        <g
           id="g112"
           transform="translate(368.8442,83.906)">
          <path
             d="M 0,0 C -0.134,0.661 -0.233,1.274 -0.298,1.838 -0.365,2.399 -0.464,2.945 -0.596,3.476 -0.729,4.137 -1.027,4.668 -1.49,5.065 -1.954,5.462 -2.482,5.661 -3.079,5.661 -3.543,5.661 -3.907,5.594 -4.171,5.462 -5.43,4.932 -6.737,4.055 -8.094,2.83 c -1.357,-1.226 -2.598,-2.599 -3.723,-4.121 -1.127,-1.523 -2.086,-3.112 -2.88,-4.767 -0.795,-1.655 -1.227,-3.212 -1.291,-4.667 0,-0.595 0.298,-0.893 0.893,-0.893 0.199,0 0.33,0.032 0.398,0.098 3.044,1.325 5.725,3.012 8.044,5.066 2.316,2.051 4.468,4.037 6.454,5.958 C -0.067,-0.364 0,-0.198 0,0 m 30.486,-3.228 c -0.132,-0.893 -0.662,-1.705 -1.589,-2.432 -1.721,-1.391 -3.708,-2.632 -5.958,-3.724 -2.252,-1.093 -4.535,-1.638 -6.852,-1.638 -2.119,0 -3.823,0.627 -5.114,1.886 -1.291,1.257 -2.035,3.044 -2.235,5.363 -0.066,0.529 -0.098,1.058 -0.098,1.588 0,0.53 -0.035,1.159 -0.1,1.887 -2.848,-2.516 -5.744,-4.999 -8.689,-7.447 -2.947,-2.45 -5.909,-4.834 -8.888,-7.151 -0.861,-0.663 -2.053,-1.291 -3.575,-1.886 -1.524,-0.596 -2.847,-0.894 -3.972,-0.894 -1.589,0 -2.895,0.546 -3.923,1.639 -1.025,1.092 -1.604,2.498 -1.738,4.22 0,0.529 0.034,1.043 0.099,1.54 0.067,0.496 0.167,0.975 0.298,1.439 0.663,2.118 1.623,4.385 2.88,6.803 1.257,2.416 2.764,4.682 4.519,6.802 1.753,2.118 3.739,3.873 5.958,5.263 2.218,1.391 4.584,2.085 7.1,2.085 1.787,0 3.278,-0.562 4.469,-1.687 C 4.27,9.301 5.064,7.68 5.462,5.562 6.058,6.091 6.604,6.57 7.101,7.001 7.597,7.432 8.108,7.812 8.64,8.144 c 0.925,0.595 1.787,0.893 2.582,0.893 0.859,0 1.621,-0.282 2.283,-0.844 0.661,-0.563 1.058,-1.407 1.192,-2.532 0.132,-1.127 0.164,-2.284 0.099,-3.475 -0.067,-1.193 -0.133,-2.384 -0.198,-3.576 -0.067,-2.45 0.463,-3.674 1.589,-3.674 0.595,0 1.306,0.149 2.134,0.447 0.827,0.298 1.672,0.678 2.533,1.141 0.86,0.463 1.688,0.927 2.483,1.391 0.794,0.462 1.423,0.827 1.887,1.092 1.057,0.661 1.986,0.993 2.78,0.993 0.795,0 1.423,-0.298 1.887,-0.894 0.529,-0.662 0.727,-1.439 0.595,-2.334"
             style="fill:#075489;fill-opacity:1;fill-rule:nonzero;stroke:none"
             id="path114" />
        </g>
        <g
           id="g116"
           transform="translate(428.3765,88.7224)">
          <path
             d="m 0,0 c -0.034,-0.695 -0.314,-1.374 -0.844,-2.035 -1.127,-1.525 -2.616,-2.284 -4.468,-2.284 -0.994,0 -1.987,0.298 -2.98,0.893 -1.06,0.728 -2.036,1.539 -2.93,2.433 -0.893,0.894 -1.771,1.804 -2.632,2.731 -0.595,0.661 -1.125,0.993 -1.588,0.993 -0.332,0 -0.829,-0.332 -1.49,-0.993 -0.662,-0.663 -1.34,-1.407 -2.036,-2.234 -0.694,-0.829 -1.34,-1.639 -1.935,-2.434 -0.597,-0.794 -0.993,-1.324 -1.193,-1.589 -1.921,-2.714 -3.79,-5.412 -5.61,-8.092 -1.822,-2.682 -3.659,-5.38 -5.512,-8.094 -0.332,-0.53 -0.729,-0.993 -1.191,-1.391 -0.464,-0.396 -0.961,-0.595 -1.49,-0.595 -0.265,0 -0.596,0.065 -0.993,0.199 -0.926,0.33 -1.522,0.844 -1.788,1.539 -0.263,0.695 -0.263,1.473 0,2.334 1.391,4.766 2.88,9.533 4.469,14.3 0.728,2.118 1.44,4.203 2.135,6.256 0.695,2.051 1.406,4.136 2.136,6.256 0.397,1.192 0.794,1.952 1.191,2.285 0.397,0.33 1.157,0.496 2.284,0.496 1.059,-0.266 1.704,-0.78 1.937,-1.539 0.231,-0.762 0.248,-1.574 0.049,-2.434 -0.133,-0.596 -0.315,-1.325 -0.546,-2.185 -0.233,-0.861 -0.464,-1.672 -0.695,-2.432 -0.233,-0.762 -0.481,-1.673 -0.745,-2.732 0.728,0.927 1.473,1.821 2.235,2.682 0.76,0.859 1.539,1.753 2.334,2.682 0.793,0.925 1.802,1.852 3.028,2.78 1.224,0.926 2.498,1.391 3.823,1.391 1.523,0 3.045,-0.83 4.568,-2.484 L -7.199,2.83 c 0.595,-0.596 1.092,-0.893 1.489,-0.893 0.33,0 0.761,0.165 1.291,0.497 0.596,0.396 1.157,0.595 1.689,0.595 0.727,0 1.389,-0.332 1.985,-0.993 C -0.216,1.373 0.033,0.695 0,0"
             style="fill:#075489;fill-opacity:1;fill-rule:nonzero;stroke:none"
             id="path118" />
        </g>
        <g
           id="g120"
           transform="translate(444.2153,83.906)">
          <path
             d="M 0,0 C -0.134,0.661 -0.233,1.274 -0.298,1.838 -0.365,2.399 -0.464,2.945 -0.596,3.476 -0.729,4.137 -1.027,4.668 -1.49,5.065 -1.954,5.462 -2.482,5.661 -3.079,5.661 -3.543,5.661 -3.907,5.594 -4.171,5.462 -5.43,4.932 -6.737,4.055 -8.094,2.83 c -1.357,-1.226 -2.598,-2.599 -3.723,-4.121 -1.127,-1.523 -2.086,-3.112 -2.88,-4.767 -0.795,-1.655 -1.227,-3.212 -1.291,-4.667 0,-0.595 0.298,-0.893 0.893,-0.893 0.199,0 0.33,0.032 0.398,0.098 3.044,1.325 5.725,3.012 8.044,5.066 2.316,2.051 4.468,4.037 6.454,5.958 C -0.067,-0.364 0,-0.198 0,0 m 30.486,-3.228 c -0.132,-0.893 -0.662,-1.705 -1.589,-2.432 -1.721,-1.391 -3.708,-2.632 -5.958,-3.724 -2.252,-1.093 -4.535,-1.638 -6.852,-1.638 -2.119,0 -3.823,0.627 -5.114,1.886 -1.291,1.257 -2.035,3.044 -2.235,5.363 -0.066,0.529 -0.098,1.058 -0.098,1.588 0,0.53 -0.035,1.159 -0.1,1.887 -2.848,-2.516 -5.744,-4.999 -8.689,-7.447 -2.947,-2.45 -5.909,-4.834 -8.888,-7.151 -0.861,-0.663 -2.053,-1.291 -3.575,-1.886 -1.524,-0.596 -2.847,-0.894 -3.972,-0.894 -1.589,0 -2.895,0.546 -3.923,1.639 -1.025,1.092 -1.604,2.498 -1.738,4.22 0,0.529 0.034,1.043 0.099,1.54 0.067,0.496 0.167,0.975 0.298,1.439 0.663,2.118 1.623,4.385 2.88,6.803 1.257,2.416 2.764,4.682 4.519,6.802 1.753,2.118 3.739,3.873 5.958,5.263 2.218,1.391 4.584,2.085 7.1,2.085 1.787,0 3.278,-0.562 4.469,-1.687 C 4.27,9.301 5.064,7.68 5.462,5.562 6.058,6.091 6.604,6.57 7.101,7.001 7.597,7.432 8.108,7.812 8.64,8.144 c 0.925,0.595 1.787,0.893 2.582,0.893 0.859,0 1.621,-0.282 2.283,-0.844 0.661,-0.563 1.058,-1.407 1.192,-2.532 0.132,-1.127 0.164,-2.284 0.099,-3.475 -0.067,-1.193 -0.133,-2.384 -0.198,-3.576 -0.067,-2.45 0.463,-3.674 1.589,-3.674 0.595,0 1.306,0.149 2.134,0.447 0.827,0.298 1.672,0.678 2.533,1.141 0.86,0.463 1.688,0.927 2.483,1.391 0.794,0.462 1.423,0.827 1.887,1.092 1.057,0.661 1.986,0.993 2.78,0.993 0.795,0 1.423,-0.298 1.887,-0.894 0.529,-0.662 0.727,-1.439 0.595,-2.334"
             style="fill:#075489;fill-opacity:1;fill-rule:nonzero;stroke:none"
             id="path122" />
        </g>
        <g
           id="g124"
           transform="translate(534.2349,101.8308)">
          <path
             d="m 0,0 c 0.231,-0.828 -0.018,-1.771 -0.745,-2.83 -2.649,-3.972 -5.313,-7.895 -7.994,-11.768 -2.682,-3.873 -5.412,-7.762 -8.193,-11.669 -0.663,-0.86 -1.457,-1.837 -2.383,-2.928 -0.928,-1.093 -1.921,-2.12 -2.979,-3.079 -1.06,-0.96 -2.185,-1.755 -3.377,-2.383 -1.191,-0.63 -2.383,-0.944 -3.575,-0.944 -1.589,0 -3.013,0.529 -4.27,1.589 -1.258,1.058 -2.185,2.647 -2.781,4.767 -0.464,1.589 -0.762,3.16 -0.893,4.717 -0.134,1.554 -0.266,2.83 -0.398,3.823 0.264,2.118 0.463,3.923 0.596,5.412 0.133,1.489 0.299,2.93 0.497,4.32 0.132,0.794 0.363,1.539 0.695,2.235 0.33,0.694 0.959,1.107 1.887,1.241 0.462,0.064 0.959,-0.05 1.489,-0.348 0.529,-0.298 0.959,-0.645 1.291,-1.043 0.529,-0.662 0.845,-1.375 0.944,-2.134 0.099,-0.762 -0.149,-1.54 -0.745,-2.334 -0.397,-0.531 -0.596,-0.994 -0.596,-1.391 0,-1.985 -0.017,-3.972 -0.049,-5.958 -0.034,-1.986 0.082,-3.973 0.347,-5.958 0.199,-2.053 0.86,-3.079 1.986,-3.079 0.661,0 1.639,0.645 2.93,1.936 1.291,1.291 2.631,2.747 4.022,4.37 1.39,1.622 2.664,3.21 3.823,4.767 1.158,1.555 1.936,2.631 2.333,3.228 1.788,2.514 3.492,5.064 5.115,7.646 1.622,2.582 3.26,5.164 4.916,7.745 1.057,1.589 2.15,2.384 3.277,2.384 0.33,0 0.76,-0.134 1.291,-0.397 C -0.745,1.473 -0.233,0.827 0,0"
             style="fill:#075489;fill-opacity:1;fill-rule:nonzero;stroke:none"
             id="path126" />
        </g>
        <g
           id="g128"
           transform="translate(543.9155,105.5554)">
          <path
             d="m 0,0 c 0.596,-0.663 0.894,-1.457 0.894,-2.384 0,-1.457 -0.382,-2.632 -1.143,-3.525 -0.762,-0.894 -1.772,-1.341 -3.028,-1.341 -0.994,0 -1.954,0.447 -2.88,1.341 -0.928,0.893 -1.391,1.803 -1.391,2.731 0,0.462 0.165,0.944 0.497,1.44 0.33,0.497 0.76,0.943 1.291,1.341 0.529,0.397 1.108,0.727 1.738,0.993 0.628,0.263 1.207,0.397 1.738,0.397 C -1.358,0.993 -0.597,0.661 0,0 m -8.541,-12.612 c 0.529,0.263 1.059,0.397 1.589,0.397 0.86,0 1.522,-0.298 1.986,-0.893 0.264,-0.332 0.447,-0.795 0.546,-1.391 0.1,-0.596 0.05,-1.06 -0.148,-1.391 -1.788,-2.78 -3.113,-5.726 -3.973,-8.838 -0.861,-3.112 -1.655,-6.255 -2.383,-9.434 -0.134,-0.53 -0.233,-1.026 -0.298,-1.489 -0.067,-0.464 -0.166,-0.96 -0.298,-1.49 -0.199,-0.729 -0.531,-1.308 -0.993,-1.738 -0.464,-0.431 -1.06,-0.645 -1.788,-0.645 -1.126,0 -1.871,0.363 -2.234,1.092 -0.364,0.728 -0.546,1.589 -0.546,2.582 0.727,3.774 1.639,7.497 2.73,11.172 1.093,3.674 2.598,7.265 4.519,10.775 0.331,0.595 0.761,1.025 1.291,1.291"
             style="fill:#075489;fill-opacity:1;fill-rule:nonzero;stroke:none"
             id="path130" />
        </g>
        <g
           id="g132"
           transform="translate(578.9204,101.8308)">
          <path
             d="m 0,0 c 0.231,-0.828 -0.018,-1.771 -0.745,-2.83 -2.649,-3.972 -5.313,-7.895 -7.994,-11.768 -2.682,-3.873 -5.412,-7.762 -8.193,-11.669 -0.663,-0.86 -1.457,-1.837 -2.383,-2.928 -0.928,-1.093 -1.921,-2.12 -2.979,-3.079 -1.06,-0.96 -2.185,-1.755 -3.377,-2.383 -1.191,-0.63 -2.383,-0.944 -3.575,-0.944 -1.589,0 -3.013,0.529 -4.27,1.589 -1.258,1.058 -2.185,2.647 -2.781,4.767 -0.464,1.589 -0.762,3.16 -0.893,4.717 -0.134,1.554 -0.266,2.83 -0.398,3.823 0.264,2.118 0.463,3.923 0.596,5.412 0.133,1.489 0.299,2.93 0.497,4.32 0.132,0.794 0.363,1.539 0.695,2.235 0.33,0.694 0.959,1.107 1.887,1.241 0.462,0.064 0.959,-0.05 1.489,-0.348 0.529,-0.298 0.959,-0.645 1.291,-1.043 0.529,-0.662 0.845,-1.375 0.944,-2.134 0.099,-0.762 -0.149,-1.54 -0.745,-2.334 -0.397,-0.531 -0.596,-0.994 -0.596,-1.391 0,-1.985 -0.017,-3.972 -0.049,-5.958 -0.034,-1.986 0.082,-3.973 0.347,-5.958 0.199,-2.053 0.86,-3.079 1.986,-3.079 0.661,0 1.639,0.645 2.93,1.936 1.291,1.291 2.631,2.747 4.022,4.37 1.39,1.622 2.664,3.21 3.823,4.767 1.158,1.555 1.936,2.631 2.333,3.228 1.788,2.514 3.492,5.064 5.115,7.646 1.622,2.582 3.26,5.164 4.916,7.745 1.057,1.589 2.15,2.384 3.277,2.384 0.33,0 0.76,-0.134 1.291,-0.397 C -0.745,1.473 -0.233,0.827 0,0"
             style="fill:#075489;fill-opacity:1;fill-rule:nonzero;stroke:none"
             id="path134" />
        </g>
        <g
           id="g136"
           transform="translate(583.188,84.5515)">
          <path
             d="m 0,0 c 0.165,-0.166 0.348,-0.248 0.547,-0.248 0.529,0 1.125,0.231 1.787,0.695 0.661,0.462 1.274,1.009 1.837,1.639 0.562,0.628 1.043,1.307 1.44,2.035 C 6.009,4.85 6.239,5.478 6.307,6.009 6.372,6.272 6.322,6.471 6.157,6.604 5.991,6.736 5.843,6.803 5.711,6.803 5.313,6.803 4.816,6.537 4.221,6.009 3.625,5.478 3.029,4.866 2.434,4.171 1.838,3.476 1.307,2.781 0.845,2.086 0.381,1.391 0.083,0.877 -0.049,0.547 -0.183,0.348 -0.166,0.165 0,0 m 29.842,-1.687 c -0.266,-1.028 -0.928,-1.805 -1.987,-2.334 -3.708,-1.921 -7.397,-3.824 -11.072,-5.71 -3.675,-1.887 -7.398,-3.759 -11.172,-5.612 -0.663,-0.332 -1.44,-0.694 -2.334,-1.092 -0.893,-0.397 -1.821,-0.761 -2.78,-1.092 -0.961,-0.332 -1.921,-0.613 -2.88,-0.844 -0.961,-0.233 -1.804,-0.348 -2.532,-0.348 -2.252,0 -4.023,0.794 -5.314,2.383 -1.29,1.589 -1.67,3.641 -1.141,6.157 0.927,4.435 2.532,8.457 4.816,12.066 2.284,3.608 5.115,6.902 8.491,9.882 1.192,1.124 2.615,1.687 4.27,1.687 1.391,0 2.614,-0.397 3.675,-1.191 C 11.007,11.47 11.769,10.41 12.165,9.087 12.563,7.762 12.496,6.339 11.967,4.816 11.173,2.565 10.014,0.646 8.491,-0.943 6.968,-2.532 5.18,-3.89 3.129,-5.015 2.466,-5.412 1.738,-5.61 0.944,-5.61 c -1.457,0 -2.781,0.794 -3.972,2.382 -0.531,-1.389 -1.01,-2.68 -1.441,-3.872 -0.43,-1.192 -0.811,-2.351 -1.141,-3.476 -0.332,-1.258 0.032,-1.887 1.092,-1.887 0.331,0 0.794,0.1 1.39,0.298 0.596,0.199 1.207,0.413 1.838,0.645 0.628,0.232 1.224,0.48 1.787,0.746 0.562,0.263 0.976,0.462 1.241,0.595 3.839,1.92 7.662,3.839 11.47,5.76 3.807,1.92 7.63,3.839 11.47,5.76 1.058,0.529 1.92,0.795 2.582,0.795 0.993,0 1.72,-0.398 2.184,-1.193 0.53,-0.728 0.661,-1.605 0.398,-2.63"
             style="fill:#075489;fill-opacity:1;fill-rule:nonzero;stroke:none"
             id="path138" />
        </g>
        <g
           id="g140"
           transform="translate(641.5796,88.7224)">
          <path
             d="m 0,0 c -0.034,-0.695 -0.314,-1.374 -0.844,-2.035 -1.127,-1.525 -2.616,-2.284 -4.468,-2.284 -0.994,0 -1.987,0.298 -2.98,0.893 -1.06,0.728 -2.036,1.539 -2.93,2.433 -0.893,0.894 -1.771,1.804 -2.632,2.731 -0.595,0.661 -1.125,0.993 -1.588,0.993 -0.332,0 -0.829,-0.332 -1.49,-0.993 -0.662,-0.663 -1.34,-1.407 -2.036,-2.234 -0.694,-0.829 -1.34,-1.639 -1.935,-2.434 -0.597,-0.794 -0.993,-1.324 -1.193,-1.589 -1.921,-2.714 -3.79,-5.412 -5.61,-8.092 -1.822,-2.682 -3.659,-5.38 -5.512,-8.094 -0.332,-0.53 -0.729,-0.993 -1.191,-1.391 -0.464,-0.396 -0.961,-0.595 -1.49,-0.595 -0.265,0 -0.596,0.065 -0.993,0.199 -0.926,0.33 -1.522,0.844 -1.788,1.539 -0.263,0.695 -0.263,1.473 0,2.334 1.391,4.766 2.88,9.533 4.469,14.3 0.728,2.118 1.44,4.203 2.135,6.256 0.695,2.051 1.406,4.136 2.136,6.256 0.397,1.192 0.794,1.952 1.191,2.285 0.397,0.33 1.157,0.496 2.284,0.496 1.059,-0.266 1.704,-0.78 1.937,-1.539 0.231,-0.762 0.248,-1.574 0.049,-2.434 -0.133,-0.596 -0.315,-1.325 -0.546,-2.185 -0.233,-0.861 -0.464,-1.672 -0.695,-2.432 -0.233,-0.762 -0.481,-1.673 -0.745,-2.732 0.728,0.927 1.473,1.821 2.235,2.682 0.76,0.859 1.539,1.753 2.334,2.682 0.793,0.925 1.802,1.852 3.028,2.78 1.224,0.926 2.498,1.391 3.823,1.391 1.523,0 3.045,-0.83 4.568,-2.484 L -7.199,2.83 c 0.595,-0.596 1.092,-0.893 1.489,-0.893 0.33,0 0.761,0.165 1.291,0.497 0.596,0.396 1.157,0.595 1.689,0.595 0.727,0 1.389,-0.332 1.985,-0.993 C -0.216,1.373 0.033,0.695 0,0"
             style="fill:#075489;fill-opacity:1;fill-rule:nonzero;stroke:none"
             id="path142" />
        </g>
        <g
           id="g144"
           transform="translate(403.2373,286.6873)">
          <path
             d="m 0,0 c 13.381,-21.863 13.203,-50.507 -2.706,-72.614 -21.165,-29.412 -62.165,-36.092 -91.577,-14.928 -28.448,20.476 -35.628,59.511 -16.906,88.66 -0.765,-0.949 -1.506,-1.924 -2.228,-2.93 -22.804,-31.686 -15.604,-75.858 16.082,-98.665 31.685,-22.801 75.859,-15.603 98.663,16.083 C 20.008,-58.442 18.55,-24.106 0,0"
             style="fill:#075489;fill-opacity:1;fill-rule:nonzero;stroke:none"
             id="path146" />
        </g>
        <g
           id="g148"
           transform="translate(384.2744,213.3162)">
          <path
             d="m 0,0 c -2.01,1.969 -4.235,1.52 -6.508,0.52 -3.323,-1.469 -6.203,-3.619 -9.068,-5.799 -0.727,-0.55 -1.406,-1.175 -2.172,-1.669 -0.667,-0.431 -1.293,-1.25 -1.99,-1.6 h 0.004 l -5.882,-5.61 c 0,0 -1.005,0.343 0.081,6.554 1.434,8.198 3.11,10.148 4.61,13.829 2.442,5.985 2.942,10.447 3.062,21.407 0.033,2.68 0.911,5.28 2.165,7.692 3.417,6.592 5.744,13.546 6.861,20.889 0.325,2.131 0.367,4.324 0.136,6.479 -0.149,1.381 -1.105,2.369 -2.073,3.262 -4.482,4.155 -9.232,7.992 -14.214,11.535 -0.79,0.563 -1.604,1.094 -2.401,1.65 -3.506,2.449 -5.875,5.587 -6.666,9.935 -0.556,3.074 -1.562,6.073 -2.385,9.104 -0.08,0.288 -0.183,0.562 -0.299,0.85 V 81.976 c 0.416,-0.201 0.904,-0.65 1.659,-1.369 5.643,-5.336 10.997,-10.954 16.213,-16.709 2.774,-3.061 2.902,-4.243 1.04,-7.954 -0.23,-0.456 -0.491,-0.9 -0.762,-1.338 -3.249,-5.242 -6.637,-10.384 -10.197,-15.42 -0.461,-0.651 -0.964,-1.282 -1.456,-1.907 -0.173,-0.224 -1.077,-1.243 -1.741,-1.006 -0.327,0.12 -0.358,1.056 -0.358,1.331 0.006,1.825 0.384,4.281 2.09,5.268 0.055,0.031 0.063,0.1 0.092,0.156 3.347,3.124 5.549,8.211 5.549,13.073 0,7.748 -5.58,13.834 -12.472,13.859 v 0.006 h -0.023 -0.018 L -37.13,69.96 c -6.891,-0.025 -12.47,-6.111 -12.47,-13.859 0,-4.862 2.202,-9.949 5.546,-13.073 0.032,-0.056 0.041,-0.125 0.094,-0.156 1.704,-0.987 2.082,-3.443 2.088,-5.268 0.002,-0.275 -0.029,-1.211 -0.354,-1.331 -0.666,-0.237 -1.568,0.782 -1.744,1.006 -0.493,0.625 -0.995,1.256 -1.454,1.907 -3.56,5.036 -6.949,10.178 -10.198,15.42 -0.272,0.438 -0.531,0.882 -0.76,1.338 -1.864,3.711 -1.736,4.893 1.04,7.954 5.215,5.755 10.568,11.373 16.209,16.709 0.758,0.719 1.246,1.168 1.66,1.369 v 17.052 c -0.112,-0.288 -0.22,-0.562 -0.298,-0.85 -0.824,-3.031 -1.829,-6.03 -2.387,-9.104 -0.789,-4.348 -3.158,-7.486 -6.664,-9.935 -0.797,-0.556 -1.609,-1.087 -2.4,-1.65 -4.982,-3.543 -9.733,-7.38 -14.217,-11.535 -0.965,-0.893 -1.923,-1.881 -2.073,-3.262 -0.229,-2.155 -0.187,-4.348 0.139,-6.479 1.116,-7.343 3.442,-14.297 6.861,-20.889 1.253,-2.412 2.133,-5.012 2.162,-7.692 0.122,-10.96 0.622,-15.422 3.064,-21.407 1.499,-3.681 3.175,-5.631 4.61,-13.829 1.084,-6.211 0.083,-6.554 0.083,-6.554 l -5.887,5.61 h 0.005 c -0.693,0.35 -1.32,1.169 -1.99,1.6 -0.764,0.494 -1.444,1.119 -2.17,1.669 -2.866,2.18 -5.744,4.33 -9.069,5.799 -2.271,1 -4.495,1.449 -6.507,-0.52 -2.18,-2.137 -3.69,-4.486 -2.634,-7.767 2.979,-9.248 8.792,-16.29 16.842,-21.545 3.711,-2.417 7.815,-3.605 12.317,-3.537 3.526,0.057 7.053,0.076 10.581,0.076 3.527,0 7.054,-0.019 10.58,-0.076 4.504,-0.068 8.606,1.12 12.319,3.537 8.046,5.255 13.861,12.297 16.838,21.545 C 3.688,-4.486 2.181,-2.137 0,0"
             style="fill:#075489;fill-opacity:1;fill-rule:evenodd;stroke:none"
             id="path150" />
        </g>
        <g
           id="g152"
           transform="translate(353.8545,282.2449)">
          <path
             d="m 0,0 c 0,-3.687 -2.993,-6.68 -6.686,-6.68 -3.691,0 -6.686,2.993 -6.686,6.68 0,3.699 2.995,6.686 6.686,6.686 C -2.993,6.686 0,3.699 0,0"
             style="fill:#075489;fill-opacity:1;fill-rule:evenodd;stroke:none"
             id="path154" />
        </g>
        <g
           id="g156"
           transform="translate(289.8477,293.8669)">
          <path
             d="m 0,0 c 5.28,12.772 3.191,29.469 3.191,29.469 0,0 4.874,-13.96 1.401,-26.57 C 4.166,1.356 3.646,-0.056 3.057,-1.35 6.778,2.193 15.888,12.322 13.667,24.745 10.624,41.729 -1.083,48.82 -1.083,48.82 c 0,0 -14.654,-11.141 -11.893,-27.244 C -10.931,9.642 -3.937,2.05 -0.461,-1.074 -0.306,-0.725 -0.15,-0.362 0,0"
             style="fill:#075489;fill-opacity:1;fill-rule:nonzero;stroke:none"
             id="path158" />
        </g>
        <g
           id="g160"
           transform="translate(278.981,275.0398)">
          <path
             d="m 0,0 c -4.075,11.454 -15.278,21.133 -15.278,21.133 0,0 11.406,-6.248 16.57,-16.533 0.631,-1.256 1.123,-2.488 1.498,-3.681 0.342,4.512 0.327,16.496 -8.443,23.295 -11.997,9.304 -23.82,7.036 -23.82,7.036 0,0 -3.006,-15.915 8.283,-24.801 C -12.817,-0.144 -3.778,-0.98 0.333,-0.968 0.227,-0.649 0.117,-0.324 0,0"
             style="fill:#075489;fill-opacity:1;fill-rule:nonzero;stroke:none"
             id="path162" />
        </g>
        <g
           id="g164"
           transform="translate(404.5371,293.8669)">
          <path
             d="m 0,0 c -5.279,12.772 -3.193,29.469 -3.193,29.469 0,0 -4.871,-13.96 -1.4,-26.57 0.425,-1.543 0.947,-2.955 1.536,-4.249 -3.723,3.543 -12.832,13.672 -10.61,26.095 3.041,16.984 14.748,24.075 14.748,24.075 0,0 14.658,-11.141 11.894,-27.244 C 10.93,9.642 3.937,2.05 0.461,-1.074 0.306,-0.725 0.151,-0.362 0,0"
             style="fill:#075489;fill-opacity:1;fill-rule:nonzero;stroke:none"
             id="path166" />
        </g>
        <g
           id="g168"
           transform="translate(415.4033,275.0398)">
          <path
             d="m 0,0 c 4.077,11.454 15.276,21.133 15.276,21.133 0,0 -11.402,-6.248 -16.568,-16.533 -0.631,-1.256 -1.125,-2.488 -1.498,-3.681 -0.342,4.512 -0.326,16.496 8.445,23.295 11.997,9.304 23.818,7.036 23.818,7.036 0,0 3.006,-15.915 -8.283,-24.801 C 12.819,-0.144 3.779,-0.98 -0.331,-0.968 -0.227,-0.649 -0.119,-0.324 0,0"
             style="fill:#075489;fill-opacity:1;fill-rule:nonzero;stroke:none"
             id="path170" />
        </g>
        <g
           id="g172">
          <g
             id="g174" />
          <g
             id="g202">
            <g
               clip-path="url(#clipPath178)"
               opacity="0.5"
               id="g200">
              <g
                 transform="translate(404.5649,202.2937)"
                 id="g182">
                <path
                   d="M 0,0 C 18.681,25.951 17.223,60.287 -1.328,84.394 12.054,62.53 11.875,33.887 -4.033,11.779 -8.858,5.074 -14.717,-0.443 -21.232,-4.729 c -3.228,-5.462 -7.714,-9.936 -13.265,-13.56 -3.712,-2.418 -7.815,-3.606 -12.319,-3.537 -3.525,0.056 -7.053,0.075 -10.58,0.075 -3.528,0 -7.055,-0.019 -10.581,-0.075 -4.502,-0.069 -8.606,1.119 -12.317,3.537 -5.643,3.686 -10.181,8.248 -13.419,13.834 -0.637,0.426 -1.271,0.862 -1.898,1.307 -13.897,10.003 -22.714,24.431 -25.921,39.978 l -5.915,-4.768 c 2.458,-18.652 12.311,-36.286 28.784,-48.145 C -66.978,-38.885 -22.804,-31.687 0,0"
                   style="fill:#075489;fill-opacity:1;fill-rule:nonzero;stroke:none"
                   id="path180" />
              </g>
              <g
                 transform="translate(324.271,184.0046)"
                 id="g186">
                <path
                   d="m 0,0 c 3.711,-2.418 7.815,-3.605 12.317,-3.537 3.526,0.057 7.053,0.075 10.581,0.075 3.527,0 7.055,-0.018 10.58,-0.075 4.504,-0.068 8.606,1.119 12.319,3.537 5.551,3.624 10.037,8.098 13.265,13.56 1.452,2.455 2.65,5.117 3.574,7.985 1.056,3.28 -0.451,5.63 -2.633,7.767 -2.01,1.968 -4.234,1.519 -6.507,0.519 -3.323,-1.469 -6.204,-3.618 -9.069,-5.799 -0.726,-0.55 -1.406,-1.175 -2.171,-1.669 -0.667,-0.43 -1.294,-1.25 -1.99,-1.599 h 0.003 l -5.882,-5.611 c 0,0 -1.004,0.343 0.082,6.555 1.434,8.197 3.11,10.147 4.61,13.828 2.441,5.985 2.941,10.447 3.061,21.407 0.033,2.681 0.911,5.281 2.166,7.693 3.416,6.592 5.743,13.546 6.861,20.888 0.324,2.131 0.367,4.325 0.135,6.48 -0.148,1.381 -1.104,2.368 -2.073,3.262 -4.481,4.155 -9.232,7.992 -14.213,11.535 -0.791,0.562 -1.605,1.094 -2.402,1.649 -1.388,0.969 -2.597,2.05 -3.604,3.275 l -3.239,-2.613 c 5.33,-5.098 10.411,-10.441 15.365,-15.902 2.774,-3.062 2.903,-4.243 1.04,-7.954 -0.229,-0.456 -0.49,-0.901 -0.762,-1.338 -3.249,-5.242 -6.636,-10.385 -10.196,-15.421 -0.461,-0.65 -0.964,-1.281 -1.456,-1.906 -0.174,-0.225 -1.078,-1.243 -1.742,-1.006 -0.327,0.119 -0.358,1.056 -0.358,1.331 0.006,1.824 0.385,4.28 2.09,5.268 0.055,0.031 0.063,0.099 0.093,0.156 3.346,3.124 5.548,8.211 5.548,13.072 0,5.036 -2.358,9.366 -5.9,11.791 -0.499,-3.193 -3.259,-5.642 -6.595,-5.642 -3.336,0 -6.094,2.449 -6.597,5.642 -3.54,-2.425 -5.897,-6.755 -5.897,-11.791 0,-4.861 2.201,-9.948 5.545,-13.072 0.032,-0.057 0.041,-0.125 0.094,-0.156 1.705,-0.988 2.082,-3.444 2.089,-5.268 10e-4,-0.275 -0.03,-1.212 -0.355,-1.331 -0.665,-0.237 -1.568,0.781 -1.743,1.006 -0.494,0.625 -0.995,1.256 -1.454,1.906 C 11.019,73.533 7.631,78.676 4.382,83.918 4.11,84.355 3.851,84.8 3.621,85.256 c -1.222,2.431 -1.579,3.78 -0.908,5.28 l -7.867,-6.343 c 1.188,-6.848 3.432,-13.366 6.646,-19.557 1.253,-2.412 2.132,-5.012 2.162,-7.693 0.121,-10.96 0.621,-15.422 3.063,-21.407 1.5,-3.681 3.176,-5.631 4.61,-13.828 1.084,-6.212 0.083,-6.555 0.083,-6.555 l -5.887,5.611 h 0.005 c -0.693,0.349 -1.32,1.169 -1.99,1.599 -0.764,0.494 -1.443,1.119 -2.17,1.669 -2.866,2.181 -5.743,4.33 -9.068,5.799 -2.271,1 -4.496,1.449 -6.508,-0.519 -2.179,-2.137 -3.689,-4.487 -2.634,-7.767 0.891,-2.768 2.042,-5.33 3.423,-7.711 C -10.181,8.248 -5.643,3.687 0,0"
                   style="fill:#075489;fill-opacity:1;fill-rule:nonzero;stroke:none"
                   id="path184" />
              </g>
              <g
                 transform="translate(347.1689,275.5652)"
                 id="g190">
                <path
                   d="M 0,0 C 3.336,0 6.096,2.449 6.595,5.643 6.65,5.979 6.686,6.33 6.686,6.68 c 0,3.699 -2.993,6.685 -6.686,6.685 -1.376,0 -2.657,-0.405 -3.718,-1.125 L -4.579,11.548 C -5.873,10.329 -6.686,8.604 -6.686,6.68 -6.686,6.33 -6.65,5.979 -6.597,5.643 -6.094,2.449 -3.335,0 0,0"
                   style="fill:#075489;fill-opacity:1;fill-rule:nonzero;stroke:none"
                   id="path188" />
              </g>
              <g
                 transform="translate(390.8696,318.6121)"
                 id="g194">
                <path
                   d="m 0,0 c -2.221,-12.423 6.888,-22.552 10.61,-26.095 -0.589,1.294 -1.11,2.706 -1.535,4.249 -3.471,12.61 1.4,26.57 1.4,26.57 0,0 -2.086,-16.697 3.192,-29.469 0.152,-0.362 0.307,-0.725 0.461,-1.074 3.476,3.124 10.47,10.715 12.515,22.65 1.982,11.541 -4.996,20.539 -9.101,24.707 L 3.095,9.897 C 1.786,7.066 0.677,3.78 0,0"
                   style="fill:#075489;fill-opacity:1;fill-rule:nonzero;stroke:none"
                   id="path192" />
              </g>
              <g
                 transform="translate(415.4033,275.0398)"
                 id="g198">
                <path
                   d="m 0,0 c -0.119,-0.324 -0.227,-0.649 -0.331,-0.968 4.11,-0.012 13.15,0.824 21.521,7.417 11.289,8.886 8.283,24.801 8.283,24.801 0,0 -11.821,2.268 -23.818,-7.036 C -3.116,17.415 -3.132,5.431 -2.79,0.919 -2.417,2.112 -1.923,3.344 -1.292,4.6 3.874,14.885 15.276,21.133 15.276,21.133 15.276,21.133 4.077,11.454 0,0"
                   style="fill:#075489;fill-opacity:1;fill-rule:nonzero;stroke:none"
                   id="path196" />
              </g>
            </g>
          </g>
        </g>
        <g
           id="g204">
          <g
             id="g206" />
          <g
             id="g226">
            <g
               clip-path="url(#clipPath210)"
               opacity="0.5"
               id="g224">
              <g
                 transform="translate(404.5649,202.2937)"
                 id="g214">
                <path
                   d="M 0,0 C 14.749,20.489 16.94,46.202 8.081,67.985 L 6.236,66.504 C 10.924,48.302 7.805,28.231 -4.033,11.779 -8.858,5.074 -14.717,-0.443 -21.232,-4.729 c -3.228,-5.462 -7.714,-9.936 -13.265,-13.56 -3.712,-2.418 -7.815,-3.606 -12.319,-3.537 -3.525,0.056 -7.053,0.075 -10.58,0.075 -3.528,0 -7.055,-0.019 -10.581,-0.075 -4.502,-0.069 -8.606,1.119 -12.317,3.537 -3.446,2.25 -6.478,4.83 -9.058,7.767 l -8.021,-6.461 C -65.788,-38.685 -22.496,-31.255 0,0"
                   style="fill:#075489;fill-opacity:1;fill-rule:nonzero;stroke:none"
                   id="path212" />
              </g>
              <g
                 transform="translate(324.271,184.0046)"
                 id="g218">
                <path
                   d="m 0,0 c 3.711,-2.418 7.815,-3.605 12.317,-3.537 3.526,0.057 7.053,0.075 10.581,0.075 3.527,0 7.055,-0.018 10.58,-0.075 4.504,-0.068 8.606,1.119 12.319,3.537 5.551,3.624 10.037,8.098 13.265,13.56 1.452,2.455 2.65,5.117 3.574,7.985 1.056,3.28 -0.451,5.63 -2.633,7.767 -2.01,1.968 -4.234,1.519 -6.507,0.519 -3.323,-1.469 -6.204,-3.618 -9.069,-5.799 -0.726,-0.55 -1.406,-1.175 -2.171,-1.669 -0.667,-0.43 -1.294,-1.25 -1.99,-1.599 h 0.003 l -5.882,-5.611 c 0,0 -1.004,0.343 0.082,6.555 1.434,8.197 3.11,10.147 4.61,13.828 1.731,4.242 2.485,7.723 2.82,13.29 L 10.915,23.863 c 0.14,-0.669 0.276,-1.387 0.412,-2.155 1.084,-6.212 0.083,-6.555 0.083,-6.555 L 6.233,20.089 -9.058,7.767 C -6.478,4.83 -3.446,2.25 0,0"
                   style="fill:#075489;fill-opacity:1;fill-rule:nonzero;stroke:none"
                   id="path216" />
              </g>
              <g
                 transform="translate(444.8198,296.2039)"
                 id="g222">
                <path
                   d="m 0,0 -27.365,-22.051 c 4.661,0.337 12.131,1.819 19.139,7.336 C -2.951,-10.56 -0.798,-4.874 0,0"
                   style="fill:#075489;fill-opacity:1;fill-rule:nonzero;stroke:none"
                   id="path220" />
              </g>
            </g>
          </g>
        </g>
      </g>
    </g>
  </g>
</svg>
